<svg width="18" height="18" viewBox="0 0 18 18" fill="none" xmlns="http://www.w3.org/2000/svg">
<path d="M9.00092 6.5C8.33787 6.5 7.70199 6.76339 7.23315 7.23223C6.76431 7.70107 6.50092 8.33696 6.50092 9C6.50092 9.66304 6.76431 10.2989 7.23315 10.7678C7.70199 11.2366 8.33787 11.5 9.00092 11.5C9.66396 11.5 10.2998 11.2366 10.7687 10.7678C11.2375 10.2989 11.5009 9.66304 11.5009 9C11.5009 8.33696 11.2375 7.70107 10.7687 7.23223C10.2998 6.76339 9.66396 6.5 9.00092 6.5ZM9.00092 4.83333C10.106 4.83333 11.1658 5.27232 11.9472 6.05372C12.7286 6.83512 13.1676 7.89493 13.1676 9C13.1676 10.1051 12.7286 11.1649 11.9472 11.9463C11.1658 12.7277 10.106 13.1667 9.00092 13.1667C7.89585 13.1667 6.83604 12.7277 6.05464 11.9463C5.27324 11.1649 4.83425 10.1051 4.83425 9C4.83425 7.89493 5.27324 6.83512 6.05464 6.05372C6.83604 5.27232 7.89585 4.83333 9.00092 4.83333ZM14.4176 4.625C14.4176 4.90126 14.3078 5.16622 14.1125 5.36157C13.9171 5.55692 13.6522 5.66666 13.3759 5.66666C13.0996 5.66666 12.8347 5.55692 12.6393 5.36157C12.444 5.16622 12.3342 4.90126 12.3342 4.625C12.3342 4.34873 12.444 4.08378 12.6393 3.88843C12.8347 3.69308 13.0996 3.58333 13.3759 3.58333C13.6522 3.58333 13.9171 3.69308 14.1125 3.88843C14.3078 4.08378 14.4176 4.34873 14.4176 4.625ZM9.00092 2.33333C6.93925 2.33333 6.60258 2.33916 5.64341 2.38166C4.99008 2.4125 4.55175 2.5 4.14508 2.65833C3.80494 2.78364 3.49735 2.98386 3.24508 3.24416C2.98448 3.49635 2.78397 3.80395 2.65841 4.14416C2.50008 4.5525 2.41258 4.99 2.38258 5.6425C2.33925 6.5625 2.33341 6.88416 2.33341 9C2.33341 11.0625 2.33925 11.3983 2.38175 12.3575C2.41258 13.01 2.50008 13.4492 2.65758 13.855C2.79925 14.2175 2.96591 14.4783 3.24258 14.755C3.52341 15.035 3.78425 15.2025 4.14258 15.3408C4.55425 15.5 4.99258 15.5883 5.64258 15.6183C6.56258 15.6617 6.88425 15.6667 9.00008 15.6667C11.0626 15.6667 11.3984 15.6608 12.3576 15.6183C13.0092 15.5875 13.4476 15.5 13.8551 15.3425C14.1952 15.2172 14.5028 15.017 14.7551 14.7567C15.0359 14.4767 15.2034 14.2158 15.3417 13.8567C15.5001 13.4467 15.5884 13.0083 15.6184 12.3567C15.6617 11.4375 15.6667 11.115 15.6667 9C15.6667 6.93833 15.6609 6.60166 15.6184 5.6425C15.5876 4.99083 15.4992 4.55083 15.3417 4.14416C15.2164 3.80402 15.0162 3.49643 14.7559 3.24416C14.5037 2.98356 14.1961 2.78305 13.8559 2.6575C13.4476 2.49916 13.0092 2.41166 12.3576 2.38166C11.4384 2.33833 11.1167 2.33333 9.00008 2.33333M9.00008 0.666664C11.2642 0.666664 11.5467 0.674997 12.4359 0.716664C13.3226 0.758331 13.9276 0.897498 14.4584 1.10416C15.0084 1.31583 15.4717 1.6025 15.9351 2.065C16.359 2.48144 16.6869 2.98539 16.8959 3.54166C17.1017 4.0725 17.2417 4.6775 17.2834 5.565C17.3226 6.45333 17.3334 6.73583 17.3334 9C17.3334 11.2642 17.3251 11.5467 17.2834 12.435C17.2417 13.3233 17.1017 13.9267 16.8959 14.4583C16.6869 15.0146 16.359 15.5186 15.9351 15.935C15.5186 16.3589 15.0147 16.6868 14.4584 16.8958C13.9276 17.1017 13.3226 17.2417 12.4359 17.2833C11.5467 17.3225 11.2642 17.3333 9.00008 17.3333C6.73592 17.3333 6.45341 17.325 5.56425 17.2833C4.67758 17.2417 4.07341 17.1017 3.54175 16.8958C2.98548 16.6868 2.48153 16.3589 2.06508 15.935C1.64117 15.5186 1.31326 15.0146 1.10425 14.4583C0.897581 13.9275 0.758415 13.3225 0.716748 12.435C0.676748 11.5467 0.666748 11.2642 0.666748 9C0.666748 6.73583 0.675081 6.45333 0.716748 5.565C0.758415 4.67666 0.897581 4.07333 1.10425 3.54166C1.31326 2.98539 1.64117 2.48144 2.06508 2.065C2.48153 1.64109 2.98548 1.31318 3.54175 1.10416C4.07258 0.897498 4.67675 0.758331 5.56425 0.716664C6.45425 0.677497 6.73675 0.666664 9.00092 0.666664" fill="#4A5A4F"/>
</svg>
