<svg width="28" height="28" viewBox="0 0 28 28" fill="none" xmlns="http://www.w3.org/2000/svg">
<path d="M22.0412 20.156L27.7518 25.8653L25.8652 27.752L20.1558 22.0413C18.0315 23.7443 15.3892 24.6705 12.6665 24.6667C6.0425 24.6667 0.666504 19.2907 0.666504 12.6667C0.666504 6.04266 6.0425 0.666664 12.6665 0.666664C19.2905 0.666664 24.6665 6.04266 24.6665 12.6667C24.6704 15.3893 23.7441 18.0317 22.0412 20.156ZM19.3665 19.1667C21.0583 17.4263 22.0032 15.0938 21.9998 12.6667C21.9998 7.51066 17.8225 3.33333 12.6665 3.33333C7.5105 3.33333 3.33317 7.51066 3.33317 12.6667C3.33317 17.8227 7.5105 22 12.6665 22C15.0937 22.0034 17.4261 21.0585 19.1665 19.3667L19.3665 19.1667Z" fill="#4A5A4F"/>
</svg>
